<svg xmlns="http://www.w3.org/2000/svg" viewBox="0 0 900 620">
  <!-- Компания A -->
  <rect x="60" y="80" width="300" height="200" rx="12" fill="#FFFFFF" stroke="#DDE1E6" stroke-width="1.5"/>
  <rect x="88" y="108" width="110" height="9" rx="4.5" fill="#3A4654"/>
  <rect x="175" y="146" width="70" height="30" rx="6" fill="#1D4D7A"/>
  <line x1="210" y1="176" x2="210" y2="196" stroke="#C7CDD4" stroke-width="2"/>
  <line x1="130" y1="196" x2="290" y2="196" stroke="#C7CDD4" stroke-width="2"/>
  <line x1="130" y1="196" x2="130" y2="212" stroke="#C7CDD4" stroke-width="2"/>
  <line x1="210" y1="196" x2="210" y2="212" stroke="#C7CDD4" stroke-width="2"/>
  <line x1="290" y1="196" x2="290" y2="212" stroke="#C7CDD4" stroke-width="2"/>
  <rect x="100" y="212" width="60" height="26" rx="6" fill="#F4F5F3" stroke="#DDE1E6"/>
  <rect x="180" y="212" width="60" height="26" rx="6" fill="#F4F5F3" stroke="#DDE1E6"/>
  <rect x="260" y="212" width="60" height="26" rx="6" fill="#F4F5F3" stroke="#DDE1E6"/>

  <!-- Компания B -->
  <rect x="540" y="80" width="300" height="200" rx="12" fill="#FFFFFF" stroke="#DDE1E6" stroke-width="1.5"/>
  <rect x="568" y="108" width="110" height="9" rx="4.5" fill="#3A4654"/>
  <rect x="655" y="146" width="70" height="30" rx="6" fill="#37A3D7"/>
  <line x1="690" y1="176" x2="690" y2="196" stroke="#C7CDD4" stroke-width="2"/>
  <line x1="610" y1="196" x2="770" y2="196" stroke="#C7CDD4" stroke-width="2"/>
  <line x1="610" y1="196" x2="610" y2="212" stroke="#C7CDD4" stroke-width="2"/>
  <line x1="690" y1="196" x2="690" y2="212" stroke="#C7CDD4" stroke-width="2"/>
  <line x1="770" y1="196" x2="770" y2="212" stroke="#C7CDD4" stroke-width="2"/>
  <rect x="580" y="212" width="60" height="26" rx="6" fill="#F4F5F3" stroke="#DDE1E6"/>
  <rect x="660" y="212" width="60" height="26" rx="6" fill="#F4F5F3" stroke="#DDE1E6"/>
  <rect x="740" y="212" width="60" height="26" rx="6" fill="#F4F5F3" stroke="#DDE1E6"/>

  <!-- Стрелки объединения -->
  <path d="M250 300 q60 70 150 78" fill="none" stroke="#1D4D7A" stroke-width="5" stroke-linecap="round"/>
  <polygon points="408,368 384,376 396,354" fill="#1D4D7A"/>
  <path d="M650 300 q-60 70 -150 78" fill="none" stroke="#37A3D7" stroke-width="5" stroke-linecap="round"/>
  <polygon points="492,368 516,376 504,354" fill="#37A3D7"/>

  <!-- Объединённая компания -->
  <rect x="270" y="380" width="360" height="190" rx="12" fill="#FFFFFF" stroke="#1D4D7A" stroke-width="2"/>
  <circle cx="306" cy="414" r="13" fill="#1D4D7A"/>
  <path d="M299 414 l5 5 l10 -11" fill="none" stroke="#FFFFFF" stroke-width="3" stroke-linecap="round" stroke-linejoin="round"/>
  <rect x="330" y="406" width="150" height="9" rx="4.5" fill="#3A4654"/>
  <rect x="415" y="444" width="70" height="30" rx="6" fill="#1D4D7A"/>
  <line x1="450" y1="474" x2="450" y2="494" stroke="#C7CDD4" stroke-width="2"/>
  <line x1="350" y1="494" x2="550" y2="494" stroke="#C7CDD4" stroke-width="2"/>
  <line x1="350" y1="494" x2="350" y2="510" stroke="#C7CDD4" stroke-width="2"/>
  <line x1="450" y1="494" x2="450" y2="510" stroke="#C7CDD4" stroke-width="2"/>
  <line x1="550" y1="494" x2="550" y2="510" stroke="#C7CDD4" stroke-width="2"/>
  <rect x="320" y="510" width="60" height="26" rx="6" fill="#37A3D7"/>
  <rect x="420" y="510" width="60" height="26" rx="6" fill="#F4F5F3" stroke="#DDE1E6"/>
  <rect x="520" y="510" width="60" height="26" rx="6" fill="#37A3D7"/>

  <!-- Рост стоимости -->
  <rect x="680" y="380" width="180" height="190" rx="12" fill="#F4F5F3" stroke="#DDE1E6" stroke-width="1.5"/>
  <rect x="702" y="402" width="80" height="8" rx="4" fill="#3A4654"/>
  <rect x="702" y="500" width="28" height="48" rx="4" fill="#C7CDD4"/>
  <rect x="742" y="474" width="28" height="74" rx="4" fill="#37A3D7"/>
  <rect x="782" y="440" width="28" height="108" rx="4" fill="#1D4D7A"/>
</svg>
