<svg xmlns="http://www.w3.org/2000/svg" viewBox="0 0 900 620">
  <!-- ЛЕВО: хаос — разрозненные элементы -->
  <rect x="60" y="140" width="120" height="54" rx="8" fill="#F4F5F3" stroke="#DDE1E6" transform="rotate(-8 120 167)"/>
  <rect x="150" y="250" width="130" height="54" rx="8" fill="#F4F5F3" stroke="#DDE1E6" transform="rotate(6 215 277)"/>
  <rect x="55" y="330" width="115" height="54" rx="8" fill="#F4F5F3" stroke="#DDE1E6" transform="rotate(-5 112 357)"/>
  <rect x="185" y="400" width="120" height="54" rx="8" fill="#F4F5F3" stroke="#DDE1E6" transform="rotate(9 245 427)"/>
  <rect x="70" y="452" width="100" height="50" rx="8" fill="#F4F5F3" stroke="#DDE1E6" transform="rotate(-10 120 477)"/>
  <!-- полосы внутри -->
  <rect x="78" y="158" width="70" height="7" rx="3.5" fill="#C7CDD4" transform="rotate(-8 120 167)"/>
  <rect x="168" y="268" width="80" height="7" rx="3.5" fill="#C7CDD4" transform="rotate(6 215 277)"/>
  <rect x="73" y="348" width="66" height="7" rx="3.5" fill="#C7CDD4" transform="rotate(-5 112 357)"/>
  <rect x="203" y="418" width="70" height="7" rx="3.5" fill="#C7CDD4" transform="rotate(9 245 427)"/>
  <rect x="86" y="468" width="56" height="7" rx="3.5" fill="#C7CDD4" transform="rotate(-10 120 477)"/>
  <!-- точки проблем -->
  <circle cx="188" cy="150" r="11" fill="#D98E32" stroke="#FFFFFF" stroke-width="3"/>
  <circle cx="160" cy="360" r="11" fill="#D98E32" stroke="#FFFFFF" stroke-width="3"/>
  <circle cx="292" cy="420" r="11" fill="#D98E32" stroke="#FFFFFF" stroke-width="3"/>

  <!-- СТРЕЛКА -->
  <line x1="340" y1="310" x2="410" y2="310" stroke="#1D4D7A" stroke-width="3"/>
  <polygon points="408,300 434,310 408,320" fill="#1D4D7A"/>

  <!-- ПРАВО: собранная система — этажи -->
  <rect x="460" y="80" width="390" height="460" rx="14" fill="#FFFFFF" stroke="#DDE1E6" stroke-width="1.5"/>
  <line x1="460" y1="126" x2="850" y2="126" stroke="#DDE1E6" stroke-width="1.5"/>
  <circle cx="488" cy="103" r="6" fill="#1D4D7A"/>
  <circle cx="512" cy="103" r="6" fill="#37A3D7"/>
  <circle cx="536" cy="103" r="6" fill="#C7CDD4"/>

  <!-- этаж 1: оргсхема -->
  <rect x="486" y="146" width="338" height="72" rx="10" fill="#F4F5F3"/>
  <rect x="560" y="158" width="52" height="20" rx="5" fill="#1D4D7A"/>
  <line x1="586" y1="178" x2="586" y2="188" stroke="#C9D6E2" stroke-width="2"/>
  <line x1="536" y1="188" x2="636" y2="188" stroke="#C9D6E2" stroke-width="2"/>
  <rect x="514" y="192" width="44" height="16" rx="4" fill="#37A3D7"/>
  <rect x="564" y="192" width="44" height="16" rx="4" fill="#37A3D7"/>
  <rect x="614" y="192" width="44" height="16" rx="4" fill="#37A3D7"/>
  <rect x="694" y="166" width="106" height="9" rx="4.5" fill="#3A4654"/>
  <rect x="694" y="184" width="76" height="7" rx="3.5" fill="#C7CDD4"/>

  <!-- этаж 2: управленческий ритм -->
  <rect x="486" y="230" width="338" height="72" rx="10" fill="#F4F5F3"/>
  <g>
    <circle cx="530" cy="266" r="17" fill="none" stroke="#1D4D7A" stroke-width="4"/>
    <line x1="530" y1="266" x2="530" y2="254" stroke="#1D4D7A" stroke-width="4" stroke-linecap="round"/>
    <line x1="530" y1="266" x2="540" y2="270" stroke="#1D4D7A" stroke-width="4" stroke-linecap="round"/>
  </g>
  <circle cx="578" cy="258" r="6" fill="#37A3D7"/>
  <circle cx="600" cy="258" r="6" fill="#37A3D7"/>
  <circle cx="622" cy="258" r="6" fill="#66BEE2"/>
  <circle cx="644" cy="258" r="6" fill="#DDE1E6"/>
  <circle cx="578" cy="278" r="6" fill="#66BEE2"/>
  <circle cx="600" cy="278" r="6" fill="#DDE1E6"/>
  <circle cx="622" cy="278" r="6" fill="#37A3D7"/>
  <circle cx="644" cy="278" r="6" fill="#DDE1E6"/>
  <rect x="694" y="250" width="106" height="9" rx="4.5" fill="#3A4654"/>
  <rect x="694" y="268" width="76" height="7" rx="3.5" fill="#C7CDD4"/>

  <!-- этаж 3: показатели -->
  <rect x="486" y="314" width="338" height="72" rx="10" fill="#F4F5F3"/>
  <rect x="514" y="352" width="18" height="22" rx="3" fill="#66BEE2"/>
  <rect x="540" y="340" width="18" height="34" rx="3" fill="#37A3D7"/>
  <rect x="566" y="346" width="18" height="28" rx="3" fill="#66BEE2"/>
  <rect x="592" y="330" width="18" height="44" rx="3" fill="#1D4D7A"/>
  <polyline points="514,344 540,332 566,338 592,324 618,330 640,318" fill="none" stroke="#37A3D7" stroke-width="3" stroke-linecap="round"/>
  <rect x="694" y="334" width="106" height="9" rx="4.5" fill="#3A4654"/>
  <rect x="694" y="352" width="76" height="7" rx="3.5" fill="#C7CDD4"/>

  <!-- этаж 4: финансовый контур -->
  <rect x="486" y="398" width="338" height="72" rx="10" fill="#F4F5F3"/>
  <circle cx="536" cy="434" r="22" fill="none" stroke="#1D4D7A" stroke-width="5"/>
  <path d="M536 412 a22 22 0 0 1 22 22 l-22 0 z" fill="#37A3D7"/>
  <rect x="578" y="420" width="60" height="8" rx="4" fill="#66BEE2"/>
  <rect x="578" y="436" width="44" height="8" rx="4" fill="#37A3D7"/>
  <rect x="694" y="418" width="106" height="9" rx="4.5" fill="#3A4654"/>
  <rect x="694" y="436" width="76" height="7" rx="3.5" fill="#C7CDD4"/>

  <!-- нижняя полоса прогресса -->
  <g>
    <rect x="486" y="492" width="46" height="12" rx="3" fill="#1D4D7A"/>
    <rect x="538" y="492" width="46" height="12" rx="3" fill="#1D4D7A"/>
    <rect x="590" y="492" width="46" height="12" rx="3" fill="#37A3D7"/>
    <rect x="642" y="492" width="46" height="12" rx="3" fill="#37A3D7"/>
    <rect x="694" y="492" width="46" height="12" rx="3" fill="#66BEE2"/>
    <rect x="746" y="492" width="46" height="12" rx="3" fill="#66BEE2"/>
  </g>
</svg>
