<svg xmlns="http://www.w3.org/2000/svg" width="2048" height="958" viewBox="0 0 2048 958" shape-rendering="geometricPrecision">
  <path d="M 461 162 H 206 V 827 H 870 V 615" fill="none" stroke="#1d4d7a" stroke-width="50" stroke-linecap="butt" stroke-linejoin="miter"/>
  <path d="M 894 129 L 322 493 C 430 492, 503 516, 553 566 C 586 599, 601 648, 608 743 Z" fill="#66bee2"/>
  <path d="M 891 134 L 523 531 C 550 555, 573 594, 590 648 C 602 684, 606 715, 608 743 Z" fill="#37a3d7"/>
  <rect x="1065" y="493" width="814" height="6" fill="#1d4d7a"/>
  <g fill="#FFFFFF" transform="translate(1056.875,425.797) scale(0.172876,-0.160131)"><path d="M47 0H439L536 317H1032L1133 0H1529L1017 1490H544ZM619 587 639 651C688 820 732 1008 777 1209C825 1009 874 821 926 651L946 587Z" transform="translate(0,0)"/>
<path d="M691 -20C1060 -20 1280 149 1280 432C1280 670 1113 814 825 877L696 907C563 937 476 981 476 1073C476 1156 549 1217 690 1217C832 1217 911 1154 921 1046H1260C1256 1322 1036 1510 691 1510C353 1510 111 1325 111 1049C111 825 267 696 524 637L682 600C845 563 923 518 923 433C923 338 833 273 687 273C526 273 419 347 411 492H72C78 148 318 -20 691 -20Z" transform="translate(1576,0)"/>
<path d="M116 0H470V642C470 753 461 987 457 1183C508 973 569 752 604 642L819 0H1114L1326 642C1362 756 1425 987 1474 1200C1470 999 1461 755 1461 642V0H1816V1490H1265L1078 910C1048 808 1002 594 968 416C933 594 887 808 856 910L666 1490H116Z" transform="translate(2928,0)"/></g>
  <g fill="#FFFFFF" transform="translate(1061.670,691.340) scale(0.074030,-0.083007)"><path d="M691 -20C1060 -20 1280 149 1280 432C1280 670 1113 814 825 877L696 907C563 937 476 981 476 1073C476 1156 549 1217 690 1217C832 1217 911 1154 921 1046H1260C1256 1322 1036 1510 691 1510C353 1510 111 1325 111 1049C111 825 267 696 524 637L682 600C845 563 923 518 923 433C923 338 833 273 687 273C526 273 419 347 411 492H72C78 148 318 -20 691 -20Z" transform="translate(0,0)"/>
<path d="M66 1202H517V0H869V1202H1320V1490H66Z" transform="translate(1292,0)"/>
<path d="M116 0H469V513H661L934 0H1321L1010 569C1175 643 1269 789 1269 995C1269 1299 1062 1490 726 1490H116ZM469 792V1204H651C817 1204 903 1134 903 995C903 856 817 792 652 792Z" transform="translate(2618,0)"/>
<path d="M47 0H439L536 317H1032L1133 0H1529L1017 1490H544ZM619 587 639 651C688 820 732 1008 777 1209C825 1009 874 821 926 651L946 587Z" transform="translate(3914,0)"/>
<path d="M66 1202H517V0H869V1202H1320V1490H66Z" transform="translate(5430,0)"/>
<path d="M116 0H1149V288H469V612H1096V894H469V1202H1150V1490H116Z" transform="translate(6756,0)"/>
<path d="M797 -20C1179 -20 1453 218 1453 616V812H814V553H1112C1108 391 997 290 800 290C575 290 443 457 443 747C443 1035 582 1200 799 1200C946 1200 1046 1127 1080 1004H1437C1400 1301 1135 1510 793 1510C396 1510 82 1229 82 742C82 271 371 -20 797 -20Z" transform="translate(7945,0)"/>
<path d="M601 0H952V540L1493 1490H1081L858 1033C827 971 803 912 778 841C753 912 727 970 695 1033L461 1490H47L601 540Z" transform="translate(9426,0)"/></g>
</svg>